<svg width="31" height="31" viewBox="0 0 31 31" fill="none" xmlns="http://www.w3.org/2000/svg">
<path fill-rule="evenodd" clip-rule="evenodd" d="M15.9251 2.87328C15.6901 2.63833 15.3714 2.50635 15.039 2.50635C14.7067 2.50635 14.388 2.63833 14.153 2.87328L5.3802 11.6461L2.87369 14.1526C2.75399 14.2682 2.65852 14.4065 2.59284 14.5594C2.52715 14.7123 2.49258 14.8767 2.49114 15.0431C2.48969 15.2095 2.5214 15.3746 2.58441 15.5286C2.64743 15.6826 2.74049 15.8225 2.85816 15.9402C2.97583 16.0579 3.11576 16.1509 3.26978 16.214C3.4238 16.277 3.58883 16.3087 3.75523 16.3072C3.92164 16.3058 4.08609 16.2712 4.23899 16.2055C4.3919 16.1399 4.53019 16.0444 4.6458 15.9247L5.013 15.5575V23.8114C5.013 24.8086 5.40912 25.7649 6.11421 26.47C6.8193 27.1751 7.77561 27.5712 8.77277 27.5712H21.3053C22.3025 27.5712 23.2588 27.1751 23.9639 26.47C24.669 25.7649 25.0651 24.8086 25.0651 23.8114V15.5575L25.4323 15.9247C25.6687 16.153 25.9852 16.2793 26.3138 16.2764C26.6424 16.2736 26.9568 16.1418 27.1891 15.9094C27.4215 15.6771 27.5533 15.3627 27.5561 15.0341C27.559 14.7055 27.4327 14.3889 27.2044 14.1526L15.9251 2.87328Z" fill="black"/>
</svg>
