<svg width="32" height="32" viewBox="0 0 32 32" fill="none" xmlns="http://www.w3.org/2000/svg">
<path d="M5.17477 24.5798H10.3495V14.2303H5.17477V24.5798ZM12.9369 24.5798H18.1116V6.46823H12.9369V24.5798ZM20.699 24.5798H25.8737V16.8177H20.699V24.5798ZM2.5874 24.5798V14.2303C2.5874 13.5188 2.84096 12.9099 3.34809 12.4036C3.85521 11.8974 4.4641 11.6438 5.17477 11.643H10.3495V6.46823C10.3495 5.7567 10.6031 5.14781 11.1102 4.64154C11.6173 4.13528 12.2262 3.88172 12.9369 3.88086H18.1116C18.8231 3.88086 19.4324 4.13442 19.9396 4.64154C20.4467 5.14867 20.6998 5.75756 20.699 6.46823V14.2303H25.8737C26.5852 14.2303 27.1945 14.4839 27.7017 14.991C28.2088 15.4981 28.4619 16.107 28.4611 16.8177V24.5798C28.4611 25.2913 28.2079 25.9006 27.7017 26.4078C27.1954 26.9149 26.5861 27.168 25.8737 27.1672H5.17477C4.46324 27.1672 3.85435 26.914 3.34809 26.4078C2.84183 25.9015 2.58826 25.2922 2.5874 24.5798Z" fill="#827F7F"/>
</svg>
