<svg width="20" height="13" viewBox="0 0 20 13" fill="none" xmlns="http://www.w3.org/2000/svg">
<path d="M2.33301 9.375C2.97731 9.375 3.49996 9.87872 3.5 10.5V11.875C3.49993 12.4963 2.9773 13 2.33301 13H1.16699C0.522705 13 7.24178e-05 12.4963 0 11.875V10.5C4.34254e-05 9.87872 0.522687 9.375 1.16699 9.375H2.33301ZM7.82324 9.375C8.46757 9.375 8.99022 9.87869 8.99023 10.5V11.875C8.99018 12.4963 8.46754 13 7.82324 13H6.65723C6.01293 13 5.49029 12.4963 5.49023 11.875V10.5C5.49025 9.87869 6.0129 9.375 6.65723 9.375H7.82324ZM13.3135 9.375C13.9578 9.375 14.4805 9.87868 14.4805 10.5V11.875C14.4805 12.4963 13.9578 13 13.3135 13H12.1475C11.5031 13 10.9805 12.4963 10.9805 11.875V10.5C10.9805 9.87868 11.5031 9.375 12.1475 9.375H13.3135ZM18.8037 9.375C19.448 9.375 19.9707 9.87868 19.9707 10.5V11.875C19.9707 12.4963 19.448 13 18.8037 13H17.6377C16.9934 13 16.4707 12.4963 16.4707 11.875V10.5C16.4707 9.87881 16.9926 9.37521 17.6367 9.375H18.8037Z" fill="white"/>
<path d="M2.33301 4.5C2.97734 4.5 3.5 5.00368 3.5 5.625V6.875C3.49986 7.49621 2.97726 8 2.33301 8H1.16699C0.522745 8 0.000137076 7.49621 0 6.875V5.625C0 5.00368 0.52266 4.5 1.16699 4.5H2.33301ZM7.82324 3.25C8.46757 3.25 8.99023 3.75368 8.99023 4.375V6.875C8.9901 7.49621 8.46749 8 7.82324 8H6.65723C6.01298 8 5.49037 7.49621 5.49023 6.875V4.375C5.49023 3.75368 6.01289 3.25 6.65723 3.25H7.82324ZM13.3135 1.625C13.9578 1.625 14.4805 2.12868 14.4805 2.75V6.875C14.4805 7.49632 13.9578 8 13.3135 8H12.1475C11.5031 8 10.9805 7.49632 10.9805 6.875V2.75C10.9805 2.12868 11.5031 1.625 12.1475 1.625H13.3135Z" fill="white"/>
<path opacity="0.2" d="M17.6371 0H18.8038C19.4481 0 19.9705 0.50368 19.9705 1.125V6.875C19.9705 7.49632 19.4481 8 18.8038 8H17.6371C16.9928 8 16.4705 7.49632 16.4705 6.875V1.125C16.4705 0.50368 16.9928 0 17.6371 0Z" fill="white"/>
</svg>
